<?xml version="1.0" encoding="UTF-8"?>
<!DOCTYPE svg PUBLIC "-//W3C//DTD SVG 1.1//EN" "http://www.w3.org/Graphics/SVG/1.1/DTD/svg11.dtd">
<!-- Creator: CorelDRAW X6 -->
<svg xmlns="http://www.w3.org/2000/svg" xml:space="preserve" width="50.8mm" height="40.64mm" version="1.1" style="shape-rendering:geometricPrecision; text-rendering:geometricPrecision; image-rendering:optimizeQuality; fill-rule:evenodd; clip-rule:evenodd"
viewBox="0 0 50800 40640"
 xmlns:xlink="http://www.w3.org/1999/xlink">
 <defs>
  <style type="text/css">
   <![CDATA[
    .str0 {stroke:black;stroke-width:200}
    .fil1 {fill:black}
    .fil0 {fill:black;fill-rule:nonzero}
   ]]>
  </style>
 </defs>
 <g id="Слой_x0020_1">
  <metadata id="CorelCorpID_0Corel-Layer"/>
  <g id="_766980528">
   <path class="fil0" d="M12278 10977c-314,330 -2870,2771 -3201,3043 -220,187 -415,374 -491,297 -67,-68 161,-535 288,-765 364,-687 3023,-5666 3023,-5666l-1338 0c0,0 -1287,2413 -2362,4428 -424,0 -1177,0 -2176,0 838,-1558 2337,-4428 2337,-4428l-1338 0c0,0 -1668,3150 -2388,4479 -4114,483 -5037,3869 -3048,3869 1253,0 2515,-482 3954,-3031 26,-42 60,-101 93,-169 695,25 1584,51 2142,76 -491,919 -880,1650 -990,1844 -483,874 -229,1280 330,1280 356,0 821,-203 1549,-897 678,-644 3472,-3455 3709,-3700 85,-93 76,-830 -93,-660zm-10541 4326c-762,0 305,-1802 2489,-2218 -1033,1709 -1964,2218 -2489,2218zm16146 -4326c-314,330 -2870,2768 -3201,3039 -220,186 -415,373 -491,296 -67,-67 161,-533 288,-762 364,-685 1575,-2938 1575,-2938l-1346 9c0,0 -203,389 -500,940 -101,-500 -457,-949 -940,-949 -745,0 -1828,610 -3031,2439 -1202,1829 -855,3183 297,3183 584,0 1185,-415 1684,-914 -228,626 26,914 500,914 356,0 821,-203 1549,-897 678,-644 3472,-3455 3709,-3700 85,-93 76,-830 -93,-660zm-6410 3920c-431,0 -347,-745 195,-1660 550,-914 1346,-1659 1787,-1659 431,0 347,745 -204,1659 -541,915 -1337,1660 -1778,1660zm12091 -3920c-313,330 -2879,2768 -3200,3039 -221,186 -424,373 -492,296 -67,-67 161,-533 288,-762 364,-685 1575,-2938 1575,-2938l-1346 9c0,0 -305,567 -694,1304 -508,880 -1939,2387 -2413,2387 -491,0 -237,-533 -110,-762 364,-685 1574,-2938 1574,-2938l-1346 9c0,0 -1702,3183 -2049,3818 -482,889 -305,1795 542,1795 550,0 1600,-897 2506,-1896 -152,279 -271,491 -330,609 -483,881 -229,1287 330,1287 356,0 813,-203 1550,-897 677,-644 3471,-3455 3708,-3700 85,-93 68,-830 -93,-660zm9398 0c-313,330 -2870,2768 -3200,3039 -212,186 -415,373 -483,296 -76,-67 152,-533 279,-762 364,-685 500,-939 712,-1337 643,-1228 118,-1601 -534,-1601 -406,0 -1634,365 -3336,2591 229,-440 347,-669 525,-990 678,-1177 127,-1601 -533,-1601 -398,0 -1626,365 -3328,2591l1380 -2582 -1337 0 -3014 5613 1337 0 17 -25 -17 25c1101,-2032 3362,-4148 3853,-4148 288,0 177,364 -170,1016 -415,787 -1659,3132 -1659,3132l1338 0c0,0 76,-144 194,-364 1152,-1913 3175,-3784 3633,-3784 287,0 186,372 -170,1024 -381,711 -635,1202 -982,1837 -483,881 -229,1287 330,1287 347,0 822,-203 1550,-897 685,-644 3471,-3455 3708,-3700 85,-93 76,-830 -93,-660zm5681 0c-313,330 -2879,2768 -3200,3039 -220,186 -424,373 -491,296 -68,-67 161,-533 288,-762 364,-685 1574,-2938 1574,-2938l-1346 9c0,0 -305,567 -694,1304 -508,880 -1939,2387 -2413,2387 -491,0 -237,-533 -110,-762 364,-685 1575,-2938 1575,-2938l-1347 9c0,0 -1701,3183 -2049,3818 -482,889 -304,1795 542,1795 551,0 1600,-897 2506,-1896 -152,279 -271,491 -330,609 -482,881 -228,1287 330,1287 356,0 813,-203 1550,-897 677,-644 3471,-3455 3708,-3700 85,-93 68,-830 -93,-660zm5597 -3853c-1067,0 -1524,1211 -1829,1795 0,0 -17,26 -34,68 -821,178 -1905,-26 -2599,-957 0,0 -762,542 -229,1109 466,500 1422,779 2379,703 -406,770 -813,1863 -1177,2523 -4114,491 -5037,3869 -3048,3869 1253,0 2515,-482 3954,-3031 390,-677 1313,-2768 1922,-3954 1219,-906 2354,-2125 661,-2125zm-6384 8171c-762,0 305,-1795 2489,-2202 -1033,1694 -1964,2202 -2489,2202zm14037 -7299c-42,-67 -110,-110 -186,-110l-2277 0 -1338 0 -2616 0c-136,0 -263,76 -322,203l-322 644c-34,59 -25,127 9,186 34,59 93,93 161,93l2497 0c-550,1042 -1346,2540 -1795,3353 -4114,491 -5037,3869 -3048,3869 1253,0 2600,-482 4039,-3031 288,-508 1490,-2785 2235,-4191l2269 0c186,0 356,-101 432,-271l271 -533c34,-68 34,-144 -9,-212zm-9084 7299c-762,0 305,-1795 2489,-2202 -1033,1694 -1964,2202 -2489,2202z"/>
   <path class="fil0" d="M18426 9875c0,0 -7,-5 -14,-9l12 -2c-300,-222 -375,-556 -165,-853 293,-415 1007,-605 1595,-439 550,160 802,566 601,953 442,22 897,-154 1200,-583l498 352c-576,816 -2414,1394 -3632,638 -28,-20 -67,-37 -95,-57z"/>
   <path class="fil1 str0" d="M46754 13059c183,-310 176,-388 360,-698 4127,169 4593,2773 2095,5990 -2497,3217 -7154,4953 -13546,4911 -6393,-43 -11501,-2358 -16169,-2313 -4669,45 -7016,2172 -9866,3625 -1637,-1679 -3274,-3358 -4911,-5038 3895,-1566 6891,-2921 12319,-2582 5428,339 13948,3755 19516,3937 5568,182 9313,-1439 11049,-2921 1735,-1482 3471,-4826 -847,-4911z"/>
  </g>
 </g>
</svg>
